<?xml version="1.0" encoding="UTF-8"?> <svg xmlns="http://www.w3.org/2000/svg" xmlns:xlink="http://www.w3.org/1999/xlink" id="Layer_2" data-name="Layer 2" viewBox="0 0 682.98 161.3"><defs><style> .cls-1 { fill: url(#linear-gradient-4); } .cls-2 { fill: url(#linear-gradient-3); } .cls-3 { fill: url(#linear-gradient-2); } .cls-4 { fill: #231f20; } .cls-5 { fill: url(#linear-gradient); } </style><linearGradient id="linear-gradient" x1="8.49" y1="101.75" x2="69.76" y2=".56" gradientUnits="userSpaceOnUse"><stop offset="0" stop-color="#6adbe3"></stop><stop offset="1" stop-color="#1eaaff"></stop></linearGradient><linearGradient id="linear-gradient-2" x1="75.47" y1="-15.24" x2="120.62" y2="65.39" gradientUnits="userSpaceOnUse"><stop offset="0" stop-color="#1eaaff"></stop><stop offset="1" stop-color="#9462fb"></stop></linearGradient><linearGradient id="linear-gradient-3" x1="172.84" y1="62.37" x2="115.6" y2="159.12" gradientUnits="userSpaceOnUse"><stop offset="0" stop-color="#fae096"></stop><stop offset="1" stop-color="#f86880"></stop></linearGradient><linearGradient id="linear-gradient-4" x1="110.04" y1="178.72" x2="62.07" y2="97.69" gradientUnits="userSpaceOnUse"><stop offset="0" stop-color="#f86880"></stop><stop offset="1" stop-color="#9462fb"></stop></linearGradient></defs><g id="Layer_1-2" data-name="Layer 1"><g><g><path class="cls-5" d="M68.43,40.22l-23.34,40.42h0s-20.36,35.27-20.36,35.27c-1.32,2.29-4.63,2.29-5.95,0l-7.93-13.72L1.37,85.78c-1.83-3.17-1.83-7.09,0-10.26l9.48-16.42,10.9-18.88,15.47-26.79,1.38-2.38c1.54-1.87,3.88-3.07,6.49-3.07s5,1.22,6.53,3.13l1.31,2.27,15.5,26.85Z"></path><path class="cls-3" d="M134.2,0H50.01c-3.11,0-5.99,1.66-7.55,4.36l-3.87,6.7c1.54-1.87,3.88-3.07,6.49-3.07s5,1.22,6.53,3.13l1.31,2.27,15.5,26.85,23.34,40.43,23.34-40.42L136.26,3.58c.92-1.59-.23-3.58-2.06-3.58Z"></path><path class="cls-2" d="M115.11,121.08l23.34-40.42h0s20.36-35.27,20.36-35.27c1.32-2.29,4.63-2.29,5.95,0l7.93,13.72,9.48,16.41c1.83,3.17,1.83,7.09,0,10.26l-9.48,16.42-10.9,18.88-15.47,26.79-1.38,2.38c-1.54,1.87-3.88,3.07-6.49,3.07-2.64,0-5-1.22-6.53-3.13l-1.31-2.27-15.5-26.85Z"></path><path class="cls-1" d="M49.33,161.3h84.19c3.11,0,5.99-1.66,7.55-4.36l3.87-6.7c-1.54,1.87-3.88,3.07-6.49,3.07-2.64,0-5-1.22-6.53-3.13l-1.31-2.27-15.5-26.85-23.34-40.43-23.34,40.42-21.16,36.65c-.92,1.59.23,3.58,2.06,3.58Z"></path></g><g><path class="cls-4" d="M271.17,40.5h11.61v65.52h-5.76l-41.44-44.89v44.89h-11.61V40.5h5.76l41.45,44.89v-44.89Z"></path><path class="cls-4" d="M344.71,84h-39.65c.85,3.9,2.83,7.06,5.95,9.57,3.12,2.51,6.7,3.72,10.57,3.72,6.04,0,10.76-2.23,14.07-6.69l7.27,5.86c-4.81,6.32-13.22,10.22-22.94,10.22-7.65,0-13.88-2.51-18.79-7.53-4.91-5.02-7.36-11.15-7.36-18.4s2.45-13.48,7.36-18.49c4.91-5.02,11.14-7.53,18.79-7.53s13.59,2.42,18.03,7.34c4.53,4.93,6.8,11.25,6.8,18.96l-.09,2.97ZM305.25,76.19h28.7c-.75-7.53-5.29-12.73-13.97-12.73-7.55,0-13.31,5.39-14.73,12.73Z"></path><path class="cls-4" d="M385.03,64.57h-15.39v20.82c0,9.2,2.17,11.99,8.69,11.99,1.98,0,4.15-.19,6.51-.56v8.18c-3.4,1.12-7.18,1.67-11.33,1.67-8.78,0-15.2-5.58-15.2-15.61v-26.49h-7.74v-8.92h7.74v-15.17h11.33v15.17h15.39v8.92Z"></path><path class="cls-4" d="M444.12,87.34c0,6.04-2.27,10.87-6.89,14.31-4.63,3.44-10.76,5.2-18.41,5.2-5.76,0-10.48-.37-14.16-1.21-3.59-.84-7.93-2.51-13.12-5.02l4.25-8.64c4.34,2.04,8.21,3.44,11.52,4.18,3.4.65,7.36,1.02,11.9,1.02,8.21,0,13.22-3.35,13.22-8.92,0-5.11-4.63-7.53-15.29-10.04-6.42-1.49-9.91-2.42-14.54-4.55-6.7-2.97-9.82-7.06-10.2-14.78,0-5.67,2.17-10.22,6.51-13.75,4.34-3.53,10.2-5.3,17.65-5.3,8.97,0,17.28,1.77,25.02,5.3l-4.72,8.83c-6.8-2.97-13.69-4.46-20.58-4.46-7.55,0-12.18,3.44-12.18,8.55s4.72,7.53,16.14,10.13c15.86,3.44,23.88,8.27,23.88,19.15Z"></path><path class="cls-4" d="M500.3,62.06c5,4.83,7.55,11.06,7.55,18.68s-2.55,13.66-7.55,18.59c-5,4.93-11.23,7.34-18.5,7.34-5.85,0-11.14-1.49-15.86-4.37v18.7h-11.33V55.65h11.33v3.62c4.44-3.07,9.72-4.55,15.86-4.55,7.27,0,13.5,2.42,18.5,7.34ZM491.9,92.36c3.21-3.07,4.81-6.88,4.81-11.62s-1.61-8.46-4.81-11.52c-3.21-3.16-7.18-4.74-11.99-4.74-5.57,0-10.29,1.67-13.97,5.02v22.49c3.68,3.25,8.31,4.93,13.97,4.93,4.81,0,8.78-1.49,11.99-4.55Z"></path><path class="cls-4" d="M557.42,55.65h11.33v50.37h-11.33v-4.18c-4.72,3.25-10.01,4.83-15.86,4.83-7.65,0-13.88-2.6-18.6-7.71-4.72-5.11-7.08-11.25-7.08-18.31s2.36-13.2,7.08-18.31c4.72-5.11,10.95-7.71,18.6-7.71,5.76,0,11.05,1.58,15.86,4.74v-3.72ZM557.42,69.5c-3.68-3.35-8.4-5.02-13.97-5.02-4.91,0-8.97,1.58-12.08,4.74-3.12,3.16-4.63,6.97-4.63,11.43s1.61,8.27,4.72,11.52c3.12,3.16,7.17,4.74,11.99,4.74,5.66,0,10.29-1.67,13.97-4.93v-22.49Z"></path><path class="cls-4" d="M626.24,96.91c-4.63,6.04-11.71,9.76-19.54,9.76s-14.26-2.51-19.73-7.62c-5.48-5.11-8.21-11.15-8.21-18.31s2.74-13.29,8.21-18.4c5.48-5.11,12.08-7.62,19.73-7.62,8.12,0,14.73,3.25,19.73,9.67l-7.36,6.51c-3.02-4.27-7.18-6.41-12.37-6.41-4.63,0-8.69,1.58-11.99,4.74-3.3,3.16-4.91,6.97-4.91,11.52s1.61,8.27,4.91,11.43c3.3,3.16,7.36,4.74,11.99,4.74,5.19,0,9.25-2.14,12.37-6.51l7.17,6.51Z"></path><path class="cls-4" d="M682.89,84h-39.65c.85,3.9,2.83,7.06,5.95,9.57,3.12,2.51,6.7,3.72,10.57,3.72,6.04,0,10.76-2.23,14.07-6.69l7.27,5.86c-4.81,6.32-13.22,10.22-22.94,10.22-7.65,0-13.88-2.51-18.79-7.53-4.91-5.02-7.36-11.15-7.36-18.4s2.45-13.48,7.36-18.49c4.91-5.02,11.14-7.53,18.79-7.53s13.59,2.42,18.03,7.34c4.53,4.93,6.8,11.25,6.8,18.96l-.09,2.97ZM643.42,76.19h28.7c-.75-7.53-5.29-12.73-13.97-12.73-7.55,0-13.31,5.39-14.73,12.73Z"></path></g></g></g></svg> 